<?xml version="1.0" encoding="utf-8"?>
<!-- Generator: Adobe Illustrator 24.3.0, SVG Export Plug-In . SVG Version: 6.00 Build 0)  -->
<svg version="1.1" id="Layer_1" xmlns="http://www.w3.org/2000/svg" xmlns:xlink="http://www.w3.org/1999/xlink" x="0px" y="0px"
	 viewBox="0 0 512 512" style="enable-background:new 0 0 512 512;" xml:space="preserve">
<style type="text/css">
	.st0{fill:#3C4929;}
	.st1{fill:#B7CA9D;}
	.st2{fill:#4B612C;}
	.st3{fill:#759C3E;}
</style>
<g id="XMLID_1_">
	<polyline id="XMLID_2_" class="st0" points="144.2,173.24 122.32,180.39 145.04,182.92 144.2,173.24 	"/>
	<polyline id="XMLID_3_" class="st0" points="143.08,216.02 256,223.32 368.92,216.02 256,194.14 143.08,216.02 	"/>
	<polyline id="XMLID_4_" class="st0" points="367.24,182.92 389.68,180.39 367.24,174.36 367.24,182.92 	"/>
	<polyline id="XMLID_5_" class="st1" points="286.72,368.78 345.92,382.81 286.58,400.62 286.72,368.78 	"/>
	<polyline id="XMLID_6_" class="st2" points="143.08,96.37 143.08,56.39 256,0 256.56,0.42 256.28,51.06 256,51.2 255.58,52.32 
		193.86,77.29 193.3,165.1 226.12,159.63 256,153.6 256,512 222.19,495.17 222.19,447.33 192.6,435.41 192.6,211.11 143.08,216.02 
		143.08,176.18 122.32,180.39 122.32,104.64 143.08,96.37 	"/>
	<polyline id="XMLID_7_" class="st3" points="226.12,159.63 192.6,166.22 192.6,76.59 226.12,86.97 226.12,159.63 	"/>
	<polyline id="XMLID_8_" class="st3" points="314.49,29.18 368.92,56.39 368.92,96.37 389.68,104.64 389.68,180.39 368.92,176.18 
		368.92,216.02 342.27,213.36 319.4,211.11 319.4,256 368.92,256 368.92,297.1 345.92,299.06 345.92,340.44 289.81,351.67 
		289.81,399.5 345.78,382.81 345.92,425.03 289.81,447.33 289.81,495.17 256,512 256,153.6 285.88,159.49 317.86,163.84 
		317.86,77.29 256.84,53.72 256,51.2 256,0 314.49,29.18 	"/>
	<polyline id="XMLID_9_" class="st0" points="289.81,64.67 256,51.2 192.6,76.59 226.12,86.97 289.81,64.67 	"/>
	<polyline id="XMLID_10_" class="st0" points="192.6,76.59 256,51.2 269.33,56.53 289.81,64.67 319.4,76.59 317.86,78.13 
		287.7,87.53 285.88,86.97 256,76.59 226.12,86.97 192.6,76.59 	"/>
	<polyline id="XMLID_11_" class="st2" points="285.88,86.97 319.4,76.59 319.4,166.22 285.88,159.49 285.88,86.97 	"/>
</g>
</svg>
